# xmcd
#
# Track frame offsets:
#	150
#	15899
#	33657
#	54849
#	79960
#	98262
#	130746
#	154907
#	168188
#	186230
#	211393
#	234448
#	259738
#
# Disc length: 3776 seconds
#
# Revision: 0
# Processed by: cddbd v1.5.2PL0 Copyright (c) Steve Scherf et al.
# Submitted via: audiograbber 1.83.01
#
DISCID=980ebe0d
DTITLE=Jesse Henry and the Royal Tycoons - Jesse Henry and the Royal Tycoons
DYEAR=2013
DGENRE=Americana
TTITLE0=Love Like We Supposed To
TTITLE1=Big Fat Mamma
TTITLE2=Poor Rosanne
TTITLE3=Wantin' Some
TTITLE4=So Much For Me
TTITLE5=Baby-La
TTITLE6=Heart Breaker
TTITLE7=Love So Complicated
TTITLE8=Midnite Train
TTITLE9=Businessman of Change
TTITLE10=Old Times
TTITLE11=Passin' Through
TTITLE12=Only Ones
EXTD=
EXTT0=
EXTT1=
EXTT2=
EXTT3=
EXTT4=
EXTT5=
EXTT6=
EXTT7=
EXTT8=
EXTT9=
EXTT10=
EXTT11=
EXTT12=
PLAYORDER=
